<svg id="Layer_1" data-name="Layer 1" xmlns="http://www.w3.org/2000/svg" viewBox="0 0 144 144"><defs><style>.cls-1{fill:#5078bb;}.cls-2{fill:#f1f2f2;}</style></defs><title>icon</title><rect class="cls-1" width="144" height="144"/><rect class="cls-2" x="46.79" y="56.7" width="68.63" height="6.23"/><polygon class="cls-2" points="28.58 71.6 40.59 69.34 44.38 90.02 28.58 92.46 28.58 71.6"/><path class="cls-2" d="M42.44,70.13,44.7,83.39a1.09,1.09,0,0,0,1.51.81,4.55,4.55,0,0,0,1.89-1.36,1,1,0,0,1,.83-.53c3.86-.12,20.05-.07,22.5-.06a1,1,0,0,0,.58-.16L89.49,71.17l.08,0c.3-.22,2-1.65.78-3.22a2.53,2.53,0,0,0-3.71-.71l-.19.13c-1.1.56-11.29,5.74-13.08,6-1.56.22-10-.15-13-.29a1.09,1.09,0,0,1-1-1.08h0a1.08,1.08,0,0,1,1-1.08c2.36-.26,8.31-1,9.2-2.25,1.12-1.53,1.2-3.79-3-3.52S49.92,65.62,43,69A1.09,1.09,0,0,0,42.44,70.13Z"/><path class="cls-2" d="M81.35,24.19c-29.29-.81-28.87,31.25-28.87,31.25h5.09C61.18,27.72,76.89,26,76.89,26,62.71,34.94,63.08,55.44,63.08,55.44h47.13S110.63,25,81.35,24.19Z"/><path class="cls-2" d="M16.15,107a17.22,17.22,0,0,1,2.76-.2,5.31,5.31,0,0,1,2.79.52,2.07,2.07,0,0,1,1.13,1.87,2.14,2.14,0,0,1-1.55,2v0a2.36,2.36,0,0,1,1.88,2.31,2.5,2.5,0,0,1-1,2c-.69.56-1.83.86-3.71.86a16.56,16.56,0,0,1-2.31-.14Zm2.12,3.61H19c1.13,0,1.72-.47,1.72-1.17s-.54-1.09-1.51-1.09a5.21,5.21,0,0,0-.9.06Zm0,4.18a4.62,4.62,0,0,0,.82,0c1,0,1.82-.38,1.82-1.37s-.85-1.32-1.91-1.32h-.73Z"/><path class="cls-2" d="M24.53,111.72c0-1,0-1.67-.05-2.26h1.83l.08,1.27h.05a2,2,0,0,1,1.85-1.42,2,2,0,0,1,.45,0v2a2.84,2.84,0,0,0-.57-.06,1.37,1.37,0,0,0-1.46,1.09,2.23,2.23,0,0,0,0,.47v3.47H24.53Z"/><path class="cls-2" d="M31.38,113.58c.07.88.94,1.3,1.94,1.3a5.5,5.5,0,0,0,1.88-.29l.29,1.44a6.61,6.61,0,0,1-2.48.44c-2.33,0-3.66-1.35-3.66-3.49a3.45,3.45,0,0,1,3.46-3.67c2.22,0,3.06,1.73,3.06,3.42a4,4,0,0,1-.08.85Zm2.51-1.46a1.24,1.24,0,0,0-1.2-1.39,1.41,1.41,0,0,0-1.32,1.39Z"/><path class="cls-2" d="M42.28,116.15a5,5,0,0,1-1.91.32A3.33,3.33,0,0,1,36.74,113a3.57,3.57,0,0,1,3.92-3.64,4.88,4.88,0,0,1,1.63.27L42,111.17a2.8,2.8,0,0,0-1.2-.22,1.93,1.93,0,0,0,0,3.85,3.26,3.26,0,0,0,1.23-.22Z"/><path class="cls-2" d="M43.45,106.38h2.13v3.91h0a2.47,2.47,0,0,1,.83-.71,2.43,2.43,0,0,1,1.11-.27c1.37,0,2.41.94,2.41,3v4H47.82v-3.77c0-.9-.31-1.51-1.1-1.51a1.12,1.12,0,0,0-1.07.75,1.39,1.39,0,0,0-.07.46v4.07H43.45Z"/><path class="cls-2" d="M53.94,107.51v1.95h1.54V111H53.94v2.48c0,.83.21,1.21.85,1.21a3.18,3.18,0,0,0,.63-.06l0,1.61a4.49,4.49,0,0,1-1.38.19,2.21,2.21,0,0,1-1.61-.6,2.78,2.78,0,0,1-.59-2V111H51v-1.58h.91V108Z"/><path class="cls-2" d="M56.7,114.46a4.06,4.06,0,0,0,1.82.51c.65,0,.92-.21.92-.56s-.22-.53-1-.8c-1.43-.46-2-1.24-2-2,0-1.28,1.09-2.25,2.79-2.25a4.56,4.56,0,0,1,1.93.4l-.37,1.47a3.55,3.55,0,0,0-1.49-.39c-.52,0-.81.21-.81.55s.27.5,1.11.79c1.3.45,1.84,1.12,1.85,2.12,0,1.27-1,2.22-3,2.22a4.91,4.91,0,0,1-2.22-.48Z"/><path class="cls-2" d="M65.69,106.88H67.8v4.17h0c.2-.35.43-.7.64-1l2.14-3.14h2.63l-3.13,4,3.29,5.42H70.93l-2.33-4.07-.8,1v3.08H65.69Z"/><path class="cls-2" d="M80.73,112.82a3.42,3.42,0,0,1-3.61,3.65,3.35,3.35,0,0,1-3.54-3.53,3.43,3.43,0,0,1,3.66-3.63A3.32,3.32,0,0,1,80.73,112.82Zm-5,.07c0,1.17.5,2.06,1.41,2.06s1.35-.83,1.35-2.07c0-1-.39-2-1.35-2S75.77,111.88,75.77,112.89Z"/><path class="cls-2" d="M88.85,112.82a3.43,3.43,0,0,1-3.61,3.65,3.35,3.35,0,0,1-3.54-3.53,3.43,3.43,0,0,1,3.66-3.63A3.32,3.32,0,0,1,88.85,112.82Zm-5,.07c0,1.17.5,2.06,1.4,2.06s1.36-.83,1.36-2.07c0-1-.39-2-1.35-2S83.89,111.88,83.89,112.89Z"/><path class="cls-2" d="M92.3,112.36h0c.16-.29.33-.57.5-.82l1.39-2.08h2.55l-2.45,2.79,2.8,4.07H94.49l-1.65-2.82-.54.68v2.14H90.16v-9.94H92.3Z"/><path class="cls-2" d="M97.85,116.32c0-.45.06-1.27.06-2v-7.89H100v3.9h0a2.38,2.38,0,0,1,2.06-1c1.65,0,2.85,1.36,2.83,3.46,0,2.47-1.56,3.7-3.13,3.7a2.25,2.25,0,0,1-2-1.1h0l-.09.95Zm2.19-2.91a1.53,1.53,0,0,0,0,.38,1.31,1.31,0,0,0,1.25,1c.91,0,1.47-.71,1.47-1.94,0-1.07-.48-1.91-1.47-1.91a1.31,1.31,0,0,0-1.25,1.06,1.61,1.61,0,0,0,0,.39Z"/><path class="cls-2" d="M113.08,112.82a3.42,3.42,0,0,1-3.61,3.65,3.35,3.35,0,0,1-3.54-3.53,3.43,3.43,0,0,1,3.66-3.63A3.32,3.32,0,0,1,113.08,112.82Zm-5,.07c0,1.17.49,2.06,1.4,2.06s1.36-.83,1.36-2.07c0-1-.39-2-1.36-2S108.13,111.88,108.13,112.89Z"/><path class="cls-2" d="M116.08,113.58c.07.88.94,1.3,1.93,1.3a5.52,5.52,0,0,0,1.89-.29l.29,1.44a6.65,6.65,0,0,1-2.48.44c-2.33,0-3.66-1.35-3.66-3.49a3.45,3.45,0,0,1,3.45-3.67c2.23,0,3.07,1.73,3.07,3.42a4,4,0,0,1-.08.85Zm2.5-1.46a1.23,1.23,0,0,0-1.19-1.39,1.4,1.4,0,0,0-1.32,1.39Z"/><path class="cls-2" d="M124,112.36h0c.16-.29.33-.57.49-.82l1.4-2.08h2.55L126,112.25l2.81,4.07h-2.62l-1.66-2.82-.54.68v2.14h-2.13v-9.94H124Z"/></svg>