<svg id="Layer_1" data-name="Layer 1" xmlns="http://www.w3.org/2000/svg" viewBox="0 0 512 512"><defs><style>.cls-1{fill:#5078bb;}.cls-2{fill:#f1f2f2;}</style></defs><title>icon192x192</title><rect class="cls-1" width="512" height="512"/><rect class="cls-2" x="166.37" y="201.61" width="244" height="22.15"/><polygon class="cls-2" points="101.63 254.58 144.33 246.55 157.81 320.08 101.63 328.74 101.63 254.58"/><path class="cls-2" d="M150.9,249.34l8,47.15a3.86,3.86,0,0,0,5.37,2.88c2.55-1.17,5.46-2.85,6.7-4.84a3.69,3.69,0,0,1,3-1.86c13.73-.45,71.27-.24,80-.21a3.9,3.9,0,0,0,2-.58l62.17-38.82.28-.19c1-.8,7.17-5.85,2.75-11.45-4.65-5.9-10.2-4.9-13.18-2.51a3.61,3.61,0,0,1-.66.44c-3.94,2-40.15,20.42-46.52,21.33-5.54.79-35.55-.52-46.1-1a3.86,3.86,0,0,1-3.67-3.86h0a3.85,3.85,0,0,1,3.43-3.83c8.39-.92,29.55-3.64,32.73-8,4-5.46,4.28-13.49-10.64-12.53-14.39.93-59.11,1.86-83.58,13.74A3.86,3.86,0,0,0,150.9,249.34Z"/><path class="cls-2" d="M289.23,86C185.1,83.14,186.6,197.11,186.6,197.11h18.08c12.85-98.56,68.71-104.66,68.71-104.66C223,124.23,224.27,197.11,224.27,197.11H391.86S393.36,88.91,289.23,86Z"/><path class="cls-2" d="M57.44,380.5a60.54,60.54,0,0,1,9.79-.72c4.62,0,7.46.45,9.92,1.88a7.27,7.27,0,0,1,4,6.61c0,3-1.73,5.73-5.51,7.14v.12c3.83,1,6.68,3.93,6.68,8.23a8.91,8.91,0,0,1-3.49,7.12c-2.46,2-6.51,3.05-13.19,3.05a58.6,58.6,0,0,1-8.2-.49ZM65,393.34h2.46c4,0,6.12-1.66,6.12-4.16s-1.93-3.89-5.36-3.89a17,17,0,0,0-3.22.23Zm0,14.85a19.23,19.23,0,0,0,2.91.13c3.45,0,6.48-1.33,6.48-4.86,0-3.36-3-4.7-6.79-4.71H65Z"/><path class="cls-2" d="M87.23,397.25c0-3.57-.07-5.93-.2-8h6.51l.27,4.51H94a7.14,7.14,0,0,1,6.57-5.06,6.2,6.2,0,0,1,1.62.15v7.12a8.88,8.88,0,0,0-2-.21c-2.79,0-4.69,1.47-5.2,3.84a9.45,9.45,0,0,0-.14,1.69v12.32H87.23Z"/><path class="cls-2" d="M111.58,403.84c.23,3.14,3.34,4.64,6.87,4.64a20.22,20.22,0,0,0,6.7-1l1,5.13a23.86,23.86,0,0,1-8.83,1.54c-8.25,0-13-4.81-13-12.4,0-6.19,3.86-13,12.28-13,7.89,0,10.87,6.14,10.87,12.17a14.11,14.11,0,0,1-.27,3Zm8.9-5.19c0-1.82-.81-4.94-4.25-4.94-3.2,0-4.5,2.93-4.71,4.94Z"/><path class="cls-2" d="M150.31,413a17.8,17.8,0,0,1-6.78,1.14c-7.88,0-12.89-4.82-12.89-12.47,0-7.12,4.87-12.95,13.93-12.95a17.68,17.68,0,0,1,5.78,1l-1.18,5.63a10.19,10.19,0,0,0-4.24-.77c-4,0-6.57,2.84-6.54,6.82,0,4.48,3,6.85,6.66,6.85a11.42,11.42,0,0,0,4.37-.79Z"/><path class="cls-2" d="M154.48,378.24h7.58v13.92h.1a8.73,8.73,0,0,1,3-2.52,8.44,8.44,0,0,1,3.94-1c4.84,0,8.54,3.36,8.54,10.7v14.21H170V400.2c0-3.2-1.1-5.4-3.91-5.4a4,4,0,0,0-3.8,2.68,4.61,4.61,0,0,0-.25,1.65v14.45h-7.58Z"/><path class="cls-2" d="M191.8,382.27v7h5.45v5.59H191.8v8.83c0,2.93.73,4.29,3,4.29a10.14,10.14,0,0,0,2.25-.23l.06,5.76a16.12,16.12,0,0,1-4.91.65,7.89,7.89,0,0,1-5.71-2.12c-1.4-1.44-2.09-3.76-2.09-7.22v-10h-3.24v-5.59h3.24V384Z"/><path class="cls-2" d="M201.59,407a14.7,14.7,0,0,0,6.49,1.82c2.29,0,3.26-.77,3.26-2s-.77-1.87-3.57-2.81c-5.07-1.67-7-4.42-6.94-7.28,0-4.58,3.86-8,9.9-8a16.13,16.13,0,0,1,6.86,1.42l-1.32,5.22a12.42,12.42,0,0,0-5.27-1.37c-1.85,0-2.91.73-2.91,2s1,1.78,3.95,2.81c4.62,1.57,6.56,4,6.59,7.5,0,4.55-3.55,7.9-10.53,7.9a17.38,17.38,0,0,1-7.89-1.72Z"/><path class="cls-2" d="M233.55,380h7.52v14.83h.12c.74-1.27,1.54-2.49,2.3-3.66l7.6-11.17h9.32l-11.1,14.27L261,413.58h-8.83l-8.26-14.46-2.84,3.51v10.95h-7.52Z"/><path class="cls-2" d="M287,401.16c0,8.9-6.3,13-12.84,13-7.08,0-12.58-4.68-12.58-12.55s5.19-12.91,13-12.91C282.07,388.67,287,393.8,287,401.16Zm-17.61.25c0,4.16,1.76,7.31,5,7.31,3,0,4.83-3,4.83-7.35,0-3.59-1.39-7.29-4.82-7.29C270.79,394.08,269.41,397.8,269.41,401.41Z"/><path class="cls-2" d="M315.89,401.16c0,8.9-6.3,13-12.84,13-7.08,0-12.58-4.68-12.58-12.55s5.19-12.91,13-12.91C310.94,388.67,315.89,393.8,315.89,401.16Zm-17.61.25c0,4.16,1.76,7.31,5,7.31,3,0,4.83-3,4.83-7.35,0-3.59-1.39-7.29-4.82-7.29C299.66,394.08,298.28,397.8,298.28,401.41Z"/><path class="cls-2" d="M328.16,399.51h.1c.57-1,1.16-2,1.75-2.93l4.94-7.36H344l-8.74,9.89,10,14.47H336l-5.89-10L328.16,406v7.59h-7.58V378.24h7.58Z"/><path class="cls-2" d="M347.91,413.58c.1-1.61.2-4.51.2-7.27V378.24h7.57v13.89h.1a8.56,8.56,0,0,1,7.35-3.46c5.86,0,10.12,4.84,10.06,12.31,0,8.77-5.56,13.15-11.15,13.15a8,8,0,0,1-7.28-3.94h-.1l-.32,3.39Zm7.77-10.34a6,6,0,0,0,.14,1.33,4.62,4.62,0,0,0,4.46,3.61c3.21,0,5.22-2.51,5.22-6.88,0-3.79-1.7-6.78-5.21-6.78a4.64,4.64,0,0,0-4.45,3.73,6.32,6.32,0,0,0-.16,1.4Z"/><path class="cls-2" d="M402.06,401.16c0,8.9-6.31,13-12.84,13-7.09,0-12.58-4.68-12.58-12.55s5.18-12.91,13-12.91C397.1,388.67,402.06,393.8,402.06,401.16Zm-17.62.25c0,4.16,1.76,7.31,5,7.31,2.95,0,4.82-3,4.82-7.35,0-3.59-1.38-7.29-4.82-7.29C385.82,394.08,384.44,397.8,384.44,401.41Z"/><path class="cls-2" d="M412.73,403.84c.23,3.14,3.34,4.64,6.87,4.64a20.22,20.22,0,0,0,6.7-1l1,5.13a23.86,23.86,0,0,1-8.83,1.54c-8.25,0-13-4.81-13-12.4,0-6.19,3.86-13,12.28-13,7.89,0,10.88,6.14,10.88,12.17a14,14,0,0,1-.28,3Zm8.9-5.19c0-1.82-.81-4.94-4.25-4.94-3.2,0-4.5,2.93-4.71,4.94Z"/><path class="cls-2" d="M440.75,399.51h.1c.57-1,1.17-2,1.76-2.93l4.94-7.36h9.08l-8.73,9.89,10,14.47h-9.31l-5.89-10L440.75,406v7.59h-7.57V378.24h7.57Z"/></svg>