<?xml version="1.0" encoding="utf-8"?>
<!-- Generator: Adobe Illustrator 24.0.1, SVG Export Plug-In . SVG Version: 6.00 Build 0)  -->
<svg version="1.1" id="Layer_1" xmlns="http://www.w3.org/2000/svg" xmlns:xlink="http://www.w3.org/1999/xlink" x="0px" y="0px"
	 viewBox="0 0 841.89 595.28" style="enable-background:new 0 0 841.89 595.28;" xml:space="preserve">
<style type="text/css">
	.st0{fill:#F1F2F2;}
</style>
<rect x="265.13" y="266.48" class="st0" width="424.18" height="38.51"/>
<polygon class="st0" points="152.58,358.57 226.81,344.62 250.25,472.43 152.58,487.5 "/>
<path class="st0" d="M238.24,349.46l13.98,81.97c0.74,4.31,5.35,6.82,9.32,5c4.44-2.03,9.5-4.95,11.66-8.41
	c1.15-1.85,2.98-3.16,5.16-3.23c23.87-0.78,123.89-0.42,139.07-0.36c1.26,0,2.5-0.35,3.58-1.02l108.07-67.47
	c0.18-0.11,0.33-0.21,0.49-0.34c1.8-1.38,12.46-10.17,4.77-19.91c-8.09-10.24-17.74-8.51-22.91-4.35c-0.36,0.29-0.72,0.55-1.14,0.76
	c-6.86,3.5-69.8,35.5-80.88,37.08c-9.63,1.38-61.79-0.9-80.13-1.76c-3.58-0.17-6.38-3.12-6.38-6.7l0,0c0-3.42,2.56-6.28,5.95-6.66
	c14.59-1.6,51.38-6.33,56.9-13.9c6.92-9.49,7.44-23.44-18.5-21.77c-25.02,1.62-102.75,3.23-145.3,23.88
	C239.25,343.58,237.73,346.5,238.24,349.46z"/>
<path class="st0" d="M478.71,65.56C297.69,60.53,300.3,258.67,300.3,258.67h31.44C354.06,87.32,451.18,76.72,451.18,76.72
	c-87.63,55.25-85.39,181.95-85.39,181.95h291.34C657.13,258.67,659.73,70.58,478.71,65.56z"/>
<circle class="st0" cx="478.71" cy="43.74" r="26.74"/>
</svg>
